<svg xmlns="http://www.w3.org/2000/svg" width="245.803" height="348.589" viewBox="0 0 245.803 348.589">
  <g id="Group_38323" data-name="Group 38323" transform="translate(0 0)">
    <g id="_Group_" data-name=" Group " transform="translate(31.287 0)">
      <g id="Group_38271" data-name="Group 38271" transform="translate(27.677 33.588)">
        <path id="Path_11535" data-name="Path 11535" d="M1992.412,322.057a8.9,8.9,0,0,1-2.5,4.518,5.841,5.841,0,0,1-1.2.9.952.952,0,0,0-.562,1.271,86.508,86.508,0,0,1,1.95,22.626,88.967,88.967,0,0,1-14.942,46.229c-13.292,19.889-31.667,32.663-54.889,38.407a85.829,85.829,0,0,1-18.528,2.4c-2.327.058-4.644-.078-6.965-.067-.3,0-.653-.13-.848.23a7.982,7.982,0,0,1-5.368,3.916H1886.3a10.5,10.5,0,0,1-3.238-1.418,7.391,7.391,0,1,1,11.691-6.769c.057.529.086.828.763.853a87.7,87.7,0,0,0,53.952-15.718c.519-.361.635-.591.218-1.157q-10.457-14.226-20.862-28.49a.91.91,0,0,0-1.29-.381,7.471,7.471,0,0,1-8.219-1.532,7.351,7.351,0,0,1-2.05-8.1,7.509,7.509,0,0,1,6.291-5.283,7.769,7.769,0,0,1,7.93,3.944,7.683,7.683,0,0,1-.856,8.71.835.835,0,0,0-.048,1.264q10.483,14.265,20.918,28.565c.418.573.656.518,1.144.139a87.814,87.814,0,0,0,27.519-35.8c.346-.819-.047-.87-.633-.96q-6.921-1.063-13.84-2.141c-1.826-.284-3.648-.6-5.478-.86a1.914,1.914,0,0,1-1.367-.865c-3.94-5.4-7.9-10.786-11.835-16.193a.973.973,0,0,0-1.348-.425,6.322,6.322,0,0,1-8.173-4.445,6.379,6.379,0,1,1,12.457-2.707,5.929,5.929,0,0,1-1.176,4.887c-.436.544-.339.858.022,1.347q5.675,7.69,11.307,15.413a1.974,1.974,0,0,0,1.418.913q9.386,1.421,18.755,2.949c.93.153,1.223-.172,1.5-.969A90.349,90.349,0,0,0,1986.617,355a87.532,87.532,0,0,0-1.541-25.358c-.136-.66-.318-.989-1.107-1.017a7.783,7.783,0,1,1,8.282-9.159,1.457,1.457,0,0,0,.161.325Z" transform="translate(-1835.192 -287.754)" fill="#fff"/>
        <path id="Path_11536" data-name="Path 11536" d="M1881.146,178.6a8.549,8.549,0,0,1,3.644,2.009,6.363,6.363,0,0,1,1.8,3.747c.062.6.273.768.842.854,7,1.053,14,2.138,21,3.2a1.873,1.873,0,0,1,1.252.9q7.014,9.572,14.039,19.136c1.95,2.657,3.92,5.3,5.84,7.98.387.539.62.581,1.151.182,2.485-1.866,5.021-3.665,7.5-5.537a1.565,1.565,0,0,1,1.708-.284,15.944,15.944,0,0,0,1.983.5c-1.471,1.084-2.846,2.1-4.227,3.113q-8.473,6.2-16.957,12.392a2.3,2.3,0,0,0-.965,1.7c-.863,5.764-1.771,11.522-2.67,17.281-.285,1.827-.635,3.645-.852,5.48a2.465,2.465,0,0,1-1.171,1.808q-11.216,8.2-22.424,16.4a.974.974,0,0,0-.415,1.357,6.544,6.544,0,0,1-4.573,8.476,6.61,6.61,0,1,1-2.875-12.893A6.355,6.355,0,0,1,1890,267.7a.765.765,0,0,0,1.117.008q11.082-8.14,22.187-16.249a1.578,1.578,0,0,0,.7-1.138c1.034-6.784,2.1-13.564,3.155-20.344.145-.929.311-1.856.424-2.789a2.5,2.5,0,0,1,1.143-1.83c2.934-2.1,5.82-4.274,8.757-6.373.587-.419.6-.677.19-1.233q-9.692-13.156-19.342-26.343a1.783,1.783,0,0,0-1.267-.818c-5.547-.831-11.088-1.7-16.631-2.563-1.053-.163-2.11-.3-3.155-.506a.981.981,0,0,0-1.3.628,6.487,6.487,0,0,1-7.561,3.485,6.6,6.6,0,0,1,.158-12.838c.181-.042.38-.025.511-.194Z" transform="translate(-1829.851 -178.602)" fill="#fff"/>
        <path id="Path_11537" data-name="Path 11537" d="M1718.176,669.817a6.35,6.35,0,0,1-6.037,6.391,6.216,6.216,0,0,1-6.585-5.234c-.121-.779-.431-1.039-1.233-1.157-6.51-.955-13.008-1.985-19.512-2.976a2.407,2.407,0,0,1-1.687-1.045q-9.753-13.34-19.519-26.672c-.513-.705-.8-.667-1.432-.2-6.187,4.568-12.4,9.095-18.588,13.665-.633.467-.808.343-1.056-.325-.5-1.349-.533-1.331.648-2.2q12.384-9.068,24.753-18.156c.633-.467.881-.362,1.252.238.71,1.148.737,1.128-.319,1.9-1.141.833-2.258,1.7-3.427,2.492-.52.352-.531.6-.17,1.084q5.206,7.042,10.371,14.114,4.456,6.074,8.9,12.154a1.669,1.669,0,0,0,1.192.775c5.545.837,11.085,1.711,16.626,2.572.836.13,1.685.2,2.505.4.671.158.961-.018,1.268-.657a6.267,6.267,0,0,1,7.177-3.329A6.375,6.375,0,0,1,1718.176,669.817Z" transform="translate(-1642.198 -546.236)" fill="#fff"/>
        <path id="Path_11538" data-name="Path 11538" d="M1796.423,477.52c2.381-1.747,4.7-3.452,7.023-5.154q7.594-5.564,15.2-11.115a.821.821,0,0,0,.352-1.144,6.337,6.337,0,0,1,4.272-8.259,6.383,6.383,0,0,1,5.3,11.432,6.189,6.189,0,0,1-7.226-.1,1.1,1.1,0,0,0-1.6.044c-6.669,4.914-13.362,9.8-20.03,14.713-.645.476-1.176.716-1.9.187A7.207,7.207,0,0,0,1796.423,477.52Z" transform="translate(-1767.355 -400.154)" fill="#fff"/>
        <path id="Path_11539" data-name="Path 11539" d="M1688.167,295.918a1.334,1.334,0,0,1,.3-.164c.676-.139,1.461-.935,1.968-.423.837.846,1.7,1.765,1.445,3.272-1.1,6.581-2.078,13.181-3.135,19.768-.109.68.3.774.717.993a6.108,6.108,0,0,1,3.513,5.881,6.38,6.38,0,1,1-7.537-6.424,1.234,1.234,0,0,0,1.2-1.214q1.4-9.435,2.895-18.855a1.656,1.656,0,0,0-.366-1.458C1688.806,296.86,1688.5,296.385,1688.167,295.918Z" transform="translate(-1673.023 -273.192)" fill="#fff"/>
      </g>
      <g id="Group_38272" data-name="Group 38272" transform="translate(0)">
        <path id="Path_11540" data-name="Path 11540" d="M1814.248,944.912a.653.653,0,0,0-.025-.16l2.879,0c-.01.052-.019.1-.027.157Z" transform="translate(-1754.123 -766.762)" fill="#fff"/>
        <path id="Path_11541" data-name="Path 11541" d="M1495.508,514.889l-.081.009-.074-.034V512.6A5.329,5.329,0,0,1,1495.508,514.889Z" transform="translate(-1495.353 -416.063)" fill="#fff"/>
        <path id="Path_11542" data-name="Path 11542" d="M1665.178,50.538a10.926,10.926,0,0,0-1.022-3.114,53.4,53.4,0,0,0-9.184-13.266Q1622.643-1.616,1574.687,3.6a15.461,15.461,0,0,1-5.5-.226A88.039,88.039,0,0,0,1544.78.44a21.392,21.392,0,0,0-9.986,2.688c-3.168,1.8-3.357,4.8-.5,7.06a27.5,27.5,0,0,0,6.213,3.682c.282.122.62.212.646.6s-.274.523-.548.684a90.237,90.237,0,0,0-22.949,19.038c-12.812,14.915-20.3,32.105-21.972,51.766a19.347,19.347,0,0,1-.329,3.627v7.351a9.812,9.812,0,0,1,.1,2.14,59.426,59.426,0,0,0,1.141,11.493,85.433,85.433,0,0,0,6.689,21.024,95.482,95.482,0,0,0,9.278,15.812,90.249,90.249,0,0,0,15.112,16.331,87.087,87.087,0,0,0,20.7,12.92,16.471,16.471,0,0,0,7.339,1.793,23.553,23.553,0,0,0,2.622-.06c2.715-.359,4.115-2,3.735-4.408a6.111,6.111,0,0,0-.862-2.172,23.146,23.146,0,0,0-4.605-5.322,157.623,157.623,0,0,1-11.71-10.919,33.768,33.768,0,0,1-6.037-8.482c-2.578-5.578-1.272-10.485,3.7-14.059a38.178,38.178,0,0,1,6.44-3.686c4.255-1.945,8.706-3.363,13.118-4.886a86.074,86.074,0,0,0,10.384-4.134,11.946,11.946,0,0,0,4.691-3.827,4.484,4.484,0,0,0-1.237-6.647,8.993,8.993,0,0,0-2.726-1.24,48.322,48.322,0,0,0-9.4-1.3c-6.418-.474-12.868-.425-19.274-1.131a48.473,48.473,0,0,1-15.3-4.017c-10.112-4.7-14.461-13.368-12.027-23.791,1.859-7.959,6.6-13.169,14.427-15.631,5.84-1.837,11.756-1.771,17.706-.943a63.39,63.39,0,0,1,16.148,4.9c2.2.939,2.236,1.135.619,2.87a26.994,26.994,0,0,0-4.492,5.782c-1.77,3.4-.778,5.442,2.988,6.155a32.575,32.575,0,0,0,14-.494,38.171,38.171,0,0,0,11.223-4.461,9.849,9.849,0,0,1,6.29-1.683c2.565.216,5.13.468,7.7.574a112.268,112.268,0,0,0,16.925-.709,85.87,85.87,0,0,0,21.814-5.14,58.092,58.092,0,0,0,20.276-12.867A7.037,7.037,0,0,0,1665.178,50.538ZM1621.717,41.6a7.982,7.982,0,1,1,.07-15.964,8.165,8.165,0,0,1,8.027,7.942A8.009,8.009,0,0,1,1621.717,41.6Z" transform="translate(-1495.353 -0.398)" fill="#fff"/>
      </g>
    </g>
    <g id="Group_38273" data-name="Group 38273" transform="translate(0.148 285.252)">
      <path id="Path_11543" data-name="Path 11543" d="M227.168,564.52c.322-2.594.473-5.428,1.057-8.169,1.02-4.787,3.981-7.283,8.881-7.606a31.624,31.624,0,0,1,6.564.21c4.043.585,6.494,3.124,7.407,7.038a38.287,38.287,0,0,1,.095,17.166c-1.069,4.8-3.694,7.122-8.578,7.6a28.458,28.458,0,0,1-7.025-.206c-4.509-.691-6.78-3.785-7.527-8.044C227.593,569.96,227.466,567.352,227.168,564.52Zm4.134.226.21.021a17.376,17.376,0,0,0,.02,2.538,48.268,48.268,0,0,0,1.133,6.158,5.308,5.308,0,0,0,4.49,3.813,15.578,15.578,0,0,0,3.741.2c3.521-.25,5.447-1.879,6.321-5.278a30.976,30.976,0,0,0,.625-10.465,28.186,28.186,0,0,0-1.03-5.512,5.426,5.426,0,0,0-4.506-3.933,14.761,14.761,0,0,0-3.738-.217c-3.785.309-5.763,2.034-6.469,5.782C231.673,560.121,231.558,562.447,231.3,564.746Z" transform="translate(-196.817 -548.667)" fill="#fff"/>
      <path id="Path_11544" data-name="Path 11544" d="M1260.161,581.332c-1.2,0-2.381.041-3.56-.035-.231-.015-.543-.452-.63-.749-.838-2.854-1.636-5.72-2.444-8.583-.784-2.778-1.987-3.691-4.872-3.692-2.1,0-4.2,0-6.389,0-.03.464-.076.861-.077,1.258-.006,3.58-.024,7.16.012,10.739.008.8-.183,1.169-1.046,1.087a18.41,18.41,0,0,0-2.071-.013c-.47.009-.71-.176-.664-.667.009-.093,0-.188,0-.283q0-14.7-.008-29.392c0-.594.1-.934.807-.942,4.17-.048,8.34-.155,12.511-.172a10.232,10.232,0,0,1,2.678.449,5.872,5.872,0,0,1,4.559,5.578,27.157,27.157,0,0,1-.157,6.265,5.114,5.114,0,0,1-4.429,4.406c-.3.06-.594.161-.916.251.06.128.079.261.139.283a5.881,5.881,0,0,1,3.542,4.025c1.059,3.245,2.017,6.523,3.013,9.788A1.9,1.9,0,0,1,1260.161,581.332Zm-17.908-16.513c3.052,0,6.032.173,8.981-.053,2.53-.193,3.578-1.334,3.888-3.807a15.805,15.805,0,0,0-.084-4.3,3.651,3.651,0,0,0-3.808-3.449c-2.688-.136-5.385-.068-8.078-.118-.787-.014-.989.317-.981,1.07.037,3.26.014,6.522.019,9.783C1242.191,564.253,1242.234,564.558,1242.254,564.819Z" transform="translate(-1017.464 -549.658)" fill="#fff"/>
      <path id="Path_11545" data-name="Path 11545" d="M538.08,582.614c.125-.465.2-.8.3-1.114q4.719-14.176,9.444-28.349c.518-1.555.7-1.683,2.365-1.686,1.068,0,2.137.036,3.2-.009s1.558.5,1.875,1.459q4.206,12.716,8.462,25.416c.453,1.36.9,2.721,1.412,4.257-1.324,0-2.5.036-3.673-.035-.2-.012-.45-.46-.544-.75-.875-2.679-1.743-5.361-2.557-8.059-.2-.676-.482-.969-1.225-.962q-5.6.05-11.21,0a.986.986,0,0,0-1.119.841c-.821,2.729-1.715,5.436-2.536,8.165-.185.616-.453.87-1.107.838C540.179,582.577,539.181,582.614,538.08,582.614Zm8.1-13.2h10.753a4.667,4.667,0,0,0-.086-.465c-1.465-4.658-2.923-9.318-4.424-13.965a1,1,0,0,0-.8-.52,1.145,1.145,0,0,0-.872.545c-.6,1.713-1.11,3.456-1.656,5.187C548.138,563.237,547.174,566.274,546.179,569.416Z" transform="translate(-449.129 -550.928)" fill="#fff"/>
      <path id="Path_11546" data-name="Path 11546" d="M66.135,582.61c.937-2.8,1.811-5.408,2.681-8.015q3.6-10.785,7.187-21.572c.47-1.41.673-1.557,2.16-1.562,1.1,0,2.2.036,3.3-.011a1.732,1.732,0,0,1,1.914,1.405q3.888,11.766,7.831,23.514c.672,2.015,1.34,4.031,2.067,6.222-1.3,0-2.473.036-3.641-.033-.21-.012-.485-.426-.575-.7-.883-2.71-1.757-5.424-2.574-8.155a1.093,1.093,0,0,0-1.255-.923q-5.559.047-11.118,0a1.046,1.046,0,0,0-1.191.88c-.8,2.7-1.681,5.381-2.487,8.082a1.021,1.021,0,0,1-1.188.882C68.276,582.572,67.3,582.61,66.135,582.61Zm18.976-13.179c-.138-.455-.241-.8-.351-1.151q-2.066-6.533-4.124-13.069c-.154-.493-.3-.809-.927-.815s-.785.331-.934.81q-1.891,6.047-3.8,12.088c-.213.676-.425,1.353-.672,2.138Z" transform="translate(-66.135 -550.923)" fill="#fff"/>
      <path id="Path_11547" data-name="Path 11547" d="M416.882,562.705c0,3.3.076,6.6-.034,9.893a19.79,19.79,0,0,1-.742,4.527,7.366,7.366,0,0,1-5.842,5.514,20.226,20.226,0,0,1-9.33-.057c-3.61-.875-5.562-3.378-6.179-6.925a31.029,31.029,0,0,1-.42-5.052c-.048-6.031,0-12.062-.04-18.093-.006-.91.246-1.174,1.156-1.159,2.683.044,2.676.006,2.685,2.656.022,6.156.032,12.312.1,18.467a12.28,12.28,0,0,0,.454,2.963,5.085,5.085,0,0,0,4.73,4.061,22.183,22.183,0,0,0,4.4,0,5.031,5.031,0,0,0,4.757-4.258,26.555,26.555,0,0,0,.5-5.133c.058-5.842.041-11.685,0-17.527-.006-.935.237-1.334,1.212-1.218a9.448,9.448,0,0,0,1.788,0c.674-.048.852.24.848.878-.024,3.487-.011,6.973-.011,10.46Z" transform="translate(-332.444 -550.838)" fill="#fff"/>
      <path id="Path_11548" data-name="Path 11548" d="M1120.882,551.551c.065.119.09.145.092.173.216,2.743.216,2.743-2.488,2.743-3.265,0-6.531,0-9.8,0-2.2,0-3.1.872-3.129,3.069-.026,1.978.027,3.957-.022,5.934-.02.786.3.931,1,.926,3.8-.026,7.6-.014,11.4-.009.368,0,.735.039,1.129.061v3.022h-1.131c-3.768,0-7.536.02-11.3-.016-.794-.008-1.112.173-1.093,1.037.054,2.511.008,5.024.022,7.536.014,2.4.848,3.231,3.223,3.233,3.705,0,7.411.018,11.116-.014.745-.007,1.109.173,1.083.978-.068,2.089.633,2.057-2,2.115q-5.461.12-10.924.166a9.81,9.81,0,0,1-2.33-.251,4.888,4.888,0,0,1-4-5.2c-.054-6.814-.069-13.629.005-20.442.036-3.319,1.823-5.213,5.425-5.341,4.416-.157,8.847.1,13.271.186A2.655,2.655,0,0,1,1120.882,551.551Z" transform="translate(-906.499 -550.742)" fill="#fff"/>
      <path id="Path_11549" data-name="Path 11549" d="M961.964,579.374h16.907c0,1,.023,1.9-.022,2.79-.008.157-.276.356-.466.433a1.838,1.838,0,0,1-.653.028q-9.469,0-18.937,0c-.338,0-.676-.032-1.07-.052-.092-1.711-.165-3.217.914-4.757,5.06-7.223,9.982-14.543,14.953-21.829.211-.31.414-.626.748-1.131a9.8,9.8,0,0,0-1.164-.15c-4.679-.009-9.359-.036-14.038.018-.981.011-1.233-.293-1.2-1.224.089-2.364-.279-2.009,1.983-2.016,5.779-.018,11.557-.006,17.336-.005,1.308,0,1.233.009,1.332,1.26a5.656,5.656,0,0,1-1.173,3.822c-4.941,7.192-9.812,14.431-14.706,21.655C962.5,578.52,962.309,578.838,961.964,579.374Z" transform="translate(-789.64 -550.938)" fill="#fff"/>
      <path id="Path_11550" data-name="Path 11550" d="M824.258,568.275c.835-1.822,1.557-3.481,2.349-5.107,1.771-3.634,3.591-7.245,5.355-10.883a1.251,1.251,0,0,1,1.353-.864c.966.058,1.937.014,3.084.014-.209.469-.34.8-.5,1.122-3.095,6.057-6.2,12.107-9.273,18.178a4.634,4.634,0,0,0-.474,1.957c-.048,3.23-.022,6.46-.022,9.792h-3.863V581.46c0-2.92.03-5.84-.022-8.759a4.867,4.867,0,0,0-.486-2.047c-3.041-6.015-6.128-12.006-9.2-18-.168-.328-.329-.661-.591-1.187,1.39,0,2.623-.025,3.853.027.184.008.411.344.522.575q3.769,7.783,7.516,15.576C823.943,567.821,824.071,567.982,824.258,568.275Z" transform="translate(-671.392 -550.898)" fill="#fff"/>
      <path id="Path_11551" data-name="Path 11551" d="M723.844,582.53c-2.6.094-5.1.229-7.606.26-2.005.025-4.021.025-6.017-.148a4.868,4.868,0,0,1-4.662-5.088c-.037-8.447-.015-16.894-.014-25.341,0-.153.026-.306.054-.613,1.1,0,2.18-.02,3.262.022.157.006.384.286.434.478a3.759,3.759,0,0,1,.036.937q0,11.257,0,22.515c0,3.328.651,3.978,3.952,3.978h10.4C723.741,580.527,723.787,581.425,723.844,582.53Z" transform="translate(-585.024 -551.043)" fill="#fff"/>
      <path id="Path_11552" data-name="Path 11552" d="M291.115,732.691l-1.156,3.6a37.209,37.209,0,0,1-11.784-4.7l.972-2.025Z" transform="translate(-238.21 -695.47)" fill="#fff"/>
    </g>
    <g id="Group_38274" data-name="Group 38274" transform="translate(0 332.359)">
      <path id="Path_11553" data-name="Path 11553" d="M389.918,798.6a1.823,1.823,0,0,1,.153,1.008q0,5.366,0,10.732c0,.188,0,.377-.008.565-.013.241-.1.446-.384.424-.22-.017-.308-.188-.313-.4s-.007-.439-.007-.659q0-5.836-.006-11.672Z" transform="translate(-328.286 -798.602)" fill="#fff"/>
      <path id="Path_11554" data-name="Path 11554" d="M1193.313,798.6q0,5.832,0,11.663c0,.219,0,.439-.006.658s-.088.381-.307.4c-.285.025-.368-.179-.384-.421-.006-.094-.006-.188-.006-.282q0-5.644.006-11.288a4.058,4.058,0,0,1,.134-.73Z" transform="translate(-980.144 -798.602)" fill="#fff"/>
      <path id="Path_11555" data-name="Path 11555" d="M789.033,819.5c1.841-1.8,3.686-1.662,5.027.412a2.97,2.97,0,0,1,2.951-1.626,2.371,2.371,0,0,1,2.324,2.073,57.091,57.091,0,0,1,.133,6.4c.006.269-.056.548-.4.494s-.283-.363-.283-.609c0-1.727,0-3.455,0-5.182,0-1.668-.66-2.533-1.946-2.582a2.474,2.474,0,0,0-2.6,2.522c-.069,1.6-.028,3.2-.035,4.8,0,.22,0,.44-.009.66-.008.2-.086.383-.313.4-.289.015-.364-.192-.365-.436,0-.817,0-1.633,0-2.45,0-1.131.012-2.262-.013-3.392a2.024,2.024,0,0,0-1.384-2.029,2.41,2.41,0,0,0-2.54.8,3.159,3.159,0,0,0-.645,2.022c0,1.476.015,2.953-.016,4.428-.008.36.251.994-.313,1.016-.615.024-.348-.623-.352-.97q-.038-3.392,0-6.784c0-.324-.257-.894.282-.943C789.217,818.469,788.753,819.175,789.033,819.5Z" transform="translate(-651.949 -814.545)" fill="#fff"/>
      <path id="Path_11556" data-name="Path 11556" d="M344.458,826.958a3.5,3.5,0,0,1-3.293,1.581,2.8,2.8,0,0,1-2.655-3c-.063-1.788-.019-3.579-.016-5.369,0-.241-.053-.556.305-.583.442-.034.381.325.382.6.006,1.6,0,3.2,0,4.8,0,1.985.7,2.887,2.251,2.924a2.852,2.852,0,0,0,3.047-2.89c.064-1.536.012-3.076.038-4.614.005-.295-.2-.811.345-.8s.328.521.331.817q.027,3.485,0,6.97c0,.333.22.9-.314.932-.589.032-.291-.558-.371-.88A4.717,4.717,0,0,1,344.458,826.958Z" transform="translate(-286.999 -815.633)" fill="#fff"/>
      <path id="Path_11557" data-name="Path 11557" d="M194.391,826.819a3.466,3.466,0,0,1-3.3,1.73,2.774,2.774,0,0,1-2.705-2.844c-.07-1.848-.022-3.7-.021-5.551,0-.242-.047-.554.322-.561.44-.009.363.353.364.617.008,1.6,0,3.2.006,4.8.006,1.947.68,2.85,2.161,2.906a2.884,2.884,0,0,0,3.145-2.9c.064-1.566.012-3.136.031-4.7,0-.271-.164-.723.344-.709.484.014.332.455.333.732q.018,3.623,0,7.246c0,.287.129.742-.316.755-.549.016-.319-.49-.367-.791A6.4,6.4,0,0,1,194.391,826.819Z" transform="translate(-165.17 -815.635)" fill="#fff"/>
      <path id="Path_11558" data-name="Path 11558" d="M1097.131,820.019a3.522,3.522,0,0,1,2.794-1.573,2.8,2.8,0,0,1,3.146,2.855c.088,1.846.023,3.7.022,5.548,0,.249.018.565-.324.572-.415.008-.365-.349-.366-.623,0-1.6,0-3.2,0-4.8,0-1.979-.7-2.91-2.217-2.96a2.921,2.921,0,0,0-3.084,2.965c-.055,1.5-.008,3.009-.036,4.513-.006.324.216.893-.361.881-.479-.01-.307-.536-.309-.846-.014-2.32-.018-4.64,0-6.959,0-.32-.243-.893.321-.908.6-.016.261.569.354.883A4.1,4.1,0,0,1,1097.131,820.019Z" transform="translate(-902.026 -814.706)" fill="#fff"/>
      <path id="Path_11559" data-name="Path 11559" d="M442.527,826.909a3.442,3.442,0,0,1-3.743,1.533,2.549,2.549,0,0,1-2.093-2.254,55.6,55.6,0,0,1-.122-6.111c-.006-.262.024-.539.386-.5s.295.35.3.585c.007,1.632,0,3.264.005,4.9,0,1.886.725,2.8,2.241,2.845a2.816,2.816,0,0,0,3.046-2.777c.078-1.44.034-2.886.043-4.33,0-.22-.006-.44,0-.659.01-.243-.035-.543.334-.556s.348.283.353.531c.007.408,0,.816,0,1.224,0,2.04.007,4.08-.008,6.12,0,.311.182.833-.292.861-.59.035-.323-.537-.393-.86C442.56,827.332,442.558,827.207,442.527,826.909Z" transform="translate(-366.582 -815.618)" fill="#fff"/>
      <path id="Path_11560" data-name="Path 11560" d="M283.118,823a3.778,3.778,0,0,0,2.711,3.758,3.821,3.821,0,0,0,4.414-1.442c.177-.249.325-.684.679-.462.387.242,0,.565-.153.789a4.186,4.186,0,0,1-4.227,1.868,4.252,4.252,0,0,1-3.894-3.183,4.4,4.4,0,0,1,1.305-4.8c2.035-1.846,5.594-1.413,6.844.787.121.213.463.5.136.727-.293.2-.467-.119-.64-.36A3.923,3.923,0,0,0,283.118,823Z" transform="translate(-241.503 -814.638)" fill="#fff"/>
      <path id="Path_11561" data-name="Path 11561" d="M958.74,818.455a4.1,4.1,0,0,1,3.649,1.936c.142.22.522.543.109.79-.328.2-.451-.2-.608-.424a3.856,3.856,0,0,0-4.553-1.509,4.019,4.019,0,0,0,.161,7.619,3.845,3.845,0,0,0,4.375-1.556c.162-.23.313-.592.628-.4.415.258,0,.557-.126.774a4.589,4.589,0,1,1-3.637-7.233Z" transform="translate(-786.557 -814.713)" fill="#fff"/>
      <path id="Path_11562" data-name="Path 11562" d="M1210.079,827.333c.894-2.364,1.724-4.557,2.553-6.75.067-.176.115-.36.2-.529.127-.269.2-.7.622-.522s.066.494-.01.7c-.945,2.554-1.915,5.1-2.879,7.645q-.631,1.669-1.262,3.338c-.109.285-.183.694-.609.532-.447-.169-.086-.523.008-.682a5.3,5.3,0,0,0-.105-5.631,50.494,50.494,0,0,1-2.146-5c-.109-.269-.549-.681-.1-.876.5-.216.539.393.672.7.884,2.039,1.743,4.089,2.614,6.135C1209.744,826.644,1209.872,826.894,1210.079,827.333Z" transform="translate(-991.134 -815.553)" fill="#fff"/>
      <path id="Path_11563" data-name="Path 11563" d="M1257.2,819.923c-1.442,0-2.872.007-4.3-.006-.252,0-.668.13-.663-.293s.423-.275.671-.278q2.261-.022,4.522,0c.263,0,.614-.146.774.15s-.146.511-.3.734q-2.188,3.18-4.381,6.358a1.63,1.63,0,0,0-.452.921h4.112c.282,0,.566-.005.847.013.191.012.383.07.39.314s-.192.324-.378.325c-1.884.01-3.772.076-5.65-.026-.773-.042-.263-.6-.072-.88,1.484-2.179,2.991-4.342,4.487-6.513A1.319,1.319,0,0,0,1257.2,819.923Z" transform="translate(-1028.328 -815.407)" fill="#fff"/>
      <path id="Path_11564" data-name="Path 11564" d="M658.289,826.8a3.47,3.47,0,0,1-3.591,1.749,2.691,2.691,0,0,1-2.413-2.686c-.049-1.882-.02-3.765-.015-5.648,0-.226-.091-.572.3-.558.379.013.284.353.285.579.009,1.663,0,3.326.008,4.99.008,1.547.646,2.5,1.807,2.711a2.879,2.879,0,0,0,3.359-1.92,4.951,4.951,0,0,0,.26-1.664q-.021-2.024,0-4.048c0-.242-.151-.646.307-.642.379,0,.273.359.273.583q.012,3.813,0,7.626c0,.233.069.563-.33.532-.316-.024-.248-.31-.257-.516C658.28,827.609,658.289,827.326,658.289,826.8Z" transform="translate(-541.638 -815.689)" fill="#fff"/>
      <path id="Path_11565" data-name="Path 11565" d="M405.366,812.335c0-1.066-.046-2.135.016-3.2.042-.729-.226-.971-.909-.871a2.056,2.056,0,0,1-.47,0c-.231-.02-.576.078-.558-.307s.363-.256.588-.271c1.332-.087,1.307-.084,1.348-1.474.013-.447-.291-1.255.328-1.265.716-.011.207.8.341,1.218a1.254,1.254,0,0,1,0,.561c-.132.807.228,1.043.993.974.323-.029.945-.215.953.225.011.6-.642.351-.976.321-.793-.072-1,.21-.984.992.054,2.162.023,4.327.013,6.491,0,.282.14.731-.34.725-.461-.006-.339-.446-.342-.734C405.359,814.593,405.366,813.464,405.366,812.335Z" transform="translate(-339.721 -803.752)" fill="#fff"/>
      <path id="Path_11566" data-name="Path 11566" d="M905.821,812.132c0-1.1-.04-2.2.015-3.292.034-.683-.222-.85-.858-.837-.385.008-1.124.275-1.116-.246.01-.6.76-.3,1.154-.285.7.026.862-.262.814-.883-.041-.53-.008-1.066,0-1.6,0-.212.09-.361.338-.335.2.021.242.174.246.334a9.016,9.016,0,0,1,0,1.316c-.111.867.135,1.289,1.1,1.164.29-.038.914-.269.891.284-.02.486-.625.283-.945.253-.8-.075-1.087.152-1.059,1.019.069,2.162.03,4.327.014,6.491,0,.263.184.737-.334.7-.4-.029-.247-.445-.25-.7C905.812,814.39,905.821,813.261,905.821,812.132Z" transform="translate(-745.821 -803.513)" fill="#fff"/>
      <path id="Path_11567" data-name="Path 11567" d="M700.071,812.165c0-1.067-.038-2.136.014-3.2.034-.7-.122-1.044-.913-.965-.351.035-1.041.244-1.035-.255.008-.575.7-.305,1.066-.283.729.046.952-.223.877-.914a11.836,11.836,0,0,1-.006-1.411c0-.216-.02-.481.29-.492s.306.254.31.471a13.207,13.207,0,0,1,0,1.411c-.062.679.153.974.886.933.369-.02,1.088-.269,1.075.281s-.727.265-1.108.257c-.642-.013-.871.169-.859.844.039,2.2.022,4.393.006,6.59,0,.273.183.746-.273.763s-.317-.453-.321-.735C700.062,814.362,700.071,813.264,700.071,812.165Z" transform="translate(-578.871 -803.506)" fill="#fff"/>
      <path id="Path_11568" data-name="Path 11568" d="M488.114,820.357a3.5,3.5,0,0,1,2.339-1.684c.228-.046.533-.188.638.157.116.385-.24.354-.46.425-1.889.611-2.531,1.462-2.552,3.428-.015,1.381,0,2.763-.01,4.144,0,.29.1.73-.359.717s-.33-.456-.331-.744q-.013-3.626,0-7.252c0-.275-.164-.73.314-.744.565-.016.32.487.374.783C488.1,819.765,488.093,819.948,488.114,820.357Z" transform="translate(-407.817 -814.835)" fill="#fff"/>
      <path id="Path_11569" data-name="Path 11569" d="M1350.584,820.6a3.45,3.45,0,0,1,2.425-1.882c.233-.051.54-.15.608.214.057.306-.236.309-.433.378-1.981.689-2.594,1.556-2.6,3.683,0,1.222.02,2.445-.014,3.667-.009.319.254.905-.317.9-.462,0-.257-.551-.26-.851-.019-2.319-.023-4.639.005-6.958,0-.3-.275-.9.33-.869.451.022.193.558.25.863A6.256,6.256,0,0,1,1350.584,820.6Z" transform="translate(-1107.821 -814.886)" fill="#fff"/>
      <path id="Path_11570" data-name="Path 11570" d="M939.059,823.931c0,1.256,0,2.511,0,3.767,0,.271.056.638-.351.642s-.347-.368-.348-.637q-.006-3.768,0-7.535c0-.233-.08-.555.292-.587.429-.036.4.3.4.582C939.061,821.419,939.058,822.675,939.059,823.931Z" transform="translate(-773.812 -815.625)" fill="#fff"/>
      <path id="Path_11571" data-name="Path 11571" d="M938.258,801.656c.123-.287-.215-.869.384-.834.521.03.326.576.334.909.008.3.155.812-.336.809C938.056,802.537,938.364,801.98,938.258,801.656Z" transform="translate(-773.735 -800.402)" fill="#fff"/>
      <path id="Path_11572" data-name="Path 11572" d="M75.377,812.2q-2.138-5.471-4.291-10.938c-.121-.307-.158-.7-.652-.661-.424.032-.449.379-.559.657-.691,1.748-1.349,3.51-2.072,5.245-.827,1.986-1.43,4.063-2.449,5.97v.377c.479.278.674,0,.826-.406.263-.7.568-1.394.809-2.1a.848.848,0,0,1,.948-.681q2.542.053,5.085,0a.869.869,0,0,1,.958.682c.251.708.539,1.4.809,2.106.1.272.24.611.574.474C75.752,812.762,75.469,812.439,75.377,812.2Zm-7.388-3.121c-.364,0-.43-.179-.314-.477.905-2.325,1.812-4.649,2.805-7.195l2.995,7.67C71.579,809.081,69.784,809.078,67.988,809.082Z" transform="translate(-65.353 -800.225)" fill="#fff"/>
      <path id="Path_11573" data-name="Path 11573" d="M134.576,830.1c.021-2.7.013-5.4.012-8.1,0-.942,0-1.883,0-2.825,0-.208.044-.482-.282-.489s-.3.257-.307.472c-.007.468,0,.936,0,1.567-2.321-2.574-5.128-2.959-7.165-1.1a4.67,4.67,0,0,0-.149,6.667c2.05,2.082,4.648,1.786,7.311-.906,0,1.635-.01,3.189.009,4.743,0,.273-.182.757.264.768C134.819,830.91,134.574,830.378,134.576,830.1ZM130.018,827a3.976,3.976,0,1,1,3.964-4.036A3.953,3.953,0,0,1,130.018,827Z" transform="translate(-114.044 -814.721)" fill="#fff"/>
      <path id="Path_11574" data-name="Path 11574" d="M599.841,812.4q-2.206-5.647-4.423-11.289c-.108-.275-.216-.509-.579-.51-.391,0-.443.3-.542.549q-2.191,5.552-4.364,11.111c-.078.2-.331.493,0,.656.356.174.49-.143.6-.411.288-.728.6-1.449.843-2.192a.823.823,0,0,1,.964-.652c.814.043,1.632.011,2.448.011.848,0,1.7.034,2.542-.012a.885.885,0,0,1,1.035.688c.26.771.591,1.518.893,2.274.089.222.234.4.493.321C600.085,812.836,599.912,812.581,599.841,812.4Zm-2.64-3.313c-1.565-.011-3.13,0-4.695,0-.328,0-.65.043-.438-.494.917-2.321,1.807-4.653,2.794-7.2.989,2.549,1.87,4.852,2.783,7.143C597.858,809.06,597.621,809.089,597.2,809.085Z" transform="translate(-490.926 -800.223)" fill="#fff"/>
      <path id="Path_11575" data-name="Path 11575" d="M1042.421,812.26q-2.183-5.555-4.363-11.111c-.1-.265-.166-.537-.542-.548-.43-.013-.494.31-.607.6q-2.18,5.555-4.353,11.113c-.077.2-.364.483.015.629.339.13.481-.154.59-.443.265-.7.589-1.387.815-2.1a.947.947,0,0,1,1.106-.736c1.569.039,3.14.051,4.708,0a1.093,1.093,0,0,1,1.286.894,21.143,21.143,0,0,0,.814,2.1.4.4,0,0,0,.526.272c.083-.031.119-.187.168-.27C1042.516,812.491,1042.467,812.376,1042.421,812.26Zm-7.9-3.208,2.981-7.655,2.974,7.655Z" transform="translate(-850.117 -800.224)" fill="#fff"/>
      <path id="Path_11576" data-name="Path 11576" d="M1293.942,823.2c1.128.029,2.257.009,3.386.008s2.258-.012,3.386,0c.423.006.609-.116.626-.581a4.442,4.442,0,0,0-2.748-4.122,4.381,4.381,0,0,0-5.15,1.653,4.982,4.982,0,0,0,.5,6c1.838,1.877,5.364,1.671,6.71-.4.148-.228.518-.541.108-.789-.316-.191-.468.183-.624.41a3.808,3.808,0,0,1-6.718-1.5C1293.3,823.41,1293.4,823.187,1293.942,823.2Zm-.515-1.419a3.674,3.674,0,0,1,3.855-2.907,3.629,3.629,0,0,1,3.379,3.006c.1.5.03.768-.573.748-1.034-.034-2.069-.009-3.1-.009-.972,0-1.946-.035-2.915.012C1293.363,822.666,1293.285,822.368,1293.427,821.782Z" transform="translate(-1061.346 -814.54)" fill="#fff"/>
      <path id="Path_11577" data-name="Path 11577" d="M512.7,823.2c1.1.034,2.2.01,3.294.01,1.13,0,2.259-.011,3.389.005.414.006.609-.092.633-.568a4.456,4.456,0,0,0-3.291-4.3,4.351,4.351,0,0,0-4.854,2.22,4.882,4.882,0,0,0,1.006,5.856,4.71,4.71,0,0,0,5.444.334,3.545,3.545,0,0,0,1.185-1.314c.074-.139.168-.3.025-.425a.34.34,0,0,0-.5.038c-.147.159-.244.363-.38.533a3.587,3.587,0,0,1-3.84,1.135,3.482,3.482,0,0,1-2.722-2.811C511.955,823.383,512.139,823.187,512.7,823.2Zm-.639-1.251a3.617,3.617,0,0,1,3.791-3.075,3.666,3.666,0,0,1,3.513,3.3c.029.454-.213.445-.508.446q-1.552,0-3.1,0c-1.034,0-2.069-.018-3.1.008C512.128,822.646,512.009,822.434,512.06,821.953Z" transform="translate(-427.26 -814.544)" fill="#fff"/>
      <path id="Path_11578" data-name="Path 11578" d="M242.92,820.917a2.785,2.785,0,0,0-2.563-2.464c-1.8-.182-3.16.536-3.584,1.9-.088.283-.281.688.1.826.484.178.411-.352.507-.6a2.457,2.457,0,0,1,2.794-1.555,2.276,2.276,0,0,1,2.142,2.022,21.56,21.56,0,0,1,.013,2.165,4.348,4.348,0,0,0-3.644-.989,2.692,2.692,0,0,0-2.376,2.409,2.554,2.554,0,0,0,1.986,2.807,3.936,3.936,0,0,0,3.969-.907c.2.314-.11.84.438.864.341.015.34-.309.335-.561C242.992,824.865,243.151,822.886,242.92,820.917Zm-2.874,6.05c-.156.01-.312,0-.469,0a2.386,2.386,0,0,1-2.41-1.107,1.9,1.9,0,0,1,.1-2.127,2.788,2.788,0,0,1,2.781-.947,2.14,2.14,0,0,1,2.287,2.1C242.338,826.091,241.479,826.872,240.046,826.967Z" transform="translate(-204.078 -814.689)" fill="#fff"/>
      <path id="Path_11579" data-name="Path 11579" d="M1149.849,826.476c.027-1.755.042-3.512-.008-5.266a2.792,2.792,0,0,0-2.588-2.745c-1.779-.174-3.242.586-3.593,1.9-.072.271-.262.687.123.823.406.143.367-.3.457-.544a2.513,2.513,0,0,1,2.946-1.594,2.347,2.347,0,0,1,2.056,2.23c.054.637.009,1.282.009,1.985a4.316,4.316,0,0,0-3.667-1.023,2.582,2.582,0,0,0-2.376,2.485,2.533,2.533,0,0,0,2.142,2.772,3.908,3.908,0,0,0,3.811-.95c.249.26-.113.868.393.839C1150.12,827.352,1149.845,826.788,1149.849,826.476Zm-2.262.414a5.036,5.036,0,0,1-.873.105c-2.261,0-3.434-1.369-2.721-2.924.529-1.155,1.561-1.332,2.679-1.285a2.39,2.39,0,0,1,2.441,1.387A2,2,0,0,1,1147.588,826.89Z" transform="translate(-940.055 -814.701)" fill="#fff"/>
      <path id="Path_11580" data-name="Path 11580" d="M865.775,826.432c.018-1.788.036-3.577-.011-5.364a2.808,2.808,0,0,0-2.333-2.7,3.285,3.285,0,0,0-3.715,1.549,1.741,1.741,0,0,0-.172.531c-.026.227-.17.553.187.627s.332-.26.415-.491a2.413,2.413,0,0,1,2.8-1.669,2.248,2.248,0,0,1,2.165,2,15.853,15.853,0,0,1,.019,2.237,4.128,4.128,0,0,0-3.574-1.037,2.593,2.593,0,0,0-2.422,2.344,2.525,2.525,0,0,0,2,2.88,3.879,3.879,0,0,0,3.949-.939c.229.332-.133.916.414.884C865.994,827.253,865.772,826.73,865.775,826.432Zm-2.319.354a5.376,5.376,0,0,1-.889.09c-2.194-.012-3.306-1.329-2.671-2.889.4-.97,1.3-1.391,2.841-1.319a2.344,2.344,0,0,1,2.351,1.519A2.039,2.039,0,0,1,863.456,826.785Z" transform="translate(-709.519 -814.579)" fill="#fff"/>
      <path id="Path_11581" data-name="Path 11581" d="M732.022,818.482a4.529,4.529,0,0,0-4.641,4.537,4.623,4.623,0,0,0,4.663,4.657,4.577,4.577,0,0,0,4.569-4.631A4.466,4.466,0,0,0,732.022,818.482Zm-.028,8.537a3.975,3.975,0,1,1,4.016-3.978A3.949,3.949,0,0,1,731.995,827.019Z" transform="translate(-602.603 -814.735)" fill="#fff"/>
    </g>
    <g id="Group_38275" data-name="Group 38275" transform="translate(5.843 202.288)">
      <path id="Path_11582" data-name="Path 11582" d="M201.353,297.62v-4.292c1.473,0,2.752.013,4.031,0a9.87,9.87,0,0,0,4.677-1.246,5.352,5.352,0,0,0,2.984-5.056q-.028-14.6-.007-29.206c0-1.273,0-1.273,1.273-1.275.754,0,1.513.057,2.26-.015.869-.083,1.094.289,1.039,1.081s-.012,1.569-.012,2.354c0,7.254.011,14.509-.014,21.763,0,.877.145,1.253,1.173,1.25,13.347-.038,26.693-.017,40.04-.038a21.816,21.816,0,0,0,3.931-.3c2.868-.532,4.248-2.255,4.257-5.191.019-6.406.007-12.813.008-19.219,0-.375,0-.749,0-1.267,1.446,0,2.845-.015,4.243.021.158,0,.387.267.444.453a2.933,2.933,0,0,1,.035.842c0,6.092-.1,12.187.031,18.277a10.175,10.175,0,0,1-9.708,10.459c-1.5.129-3.008.178-4.512.18q-19.267.02-38.533.008h-1.3c-.039.364-.085.664-.1.966-.33,5.7-3.76,9.027-9.476,9.222-1.124.038-2.245.151-3.368.23Z" transform="translate(-181.563 -228.616)" fill="#fff"/>
      <path id="Path_11583" data-name="Path 11583" d="M96.353,293.479c2.183-.11,4.374-.15,6.546-.366a6.455,6.455,0,0,0,2.25-.9,5.242,5.242,0,0,0,2.915-4.989q-.026-14.551-.007-29.1v-1.365c1.433,0,2.8-.012,4.163.02.13,0,.315.267.365.442a2.755,2.755,0,0,1,.034.748c0,9.983.016,19.967-.021,29.95a11.337,11.337,0,0,1-.5,3.325c-1.293,4.093-4.264,6.157-8.887,6.34-1.155.046-2.307.153-3.461.232H96.353Z" transform="translate(-96.353 -228.81)" fill="#fff"/>
      <path id="Path_11584" data-name="Path 11584" d="M791.157,222.3c2.576,0,4.959.055,7.338-.015a4.347,4.347,0,0,0,4.113-5.186c-.042-.22-.5-.508-.769-.513-2.2-.042-4.4-.022-6.6-.025a15.405,15.405,0,0,1-15.395-12.507,15.712,15.712,0,0,1,9.4-17.373,10.294,10.294,0,0,1,4.366-.935c4.114.069,8.229.023,12.344.024,1.242,0,1.244,0,1.244,1.21q0,12.014,0,24.029c0,1.282,0,1.284,1.286,1.284q28.928,0,57.857,0c3.031,0,4.955-1.609,5.024-4.64.07-3.064-.17-6.141-.408-9.2a2.755,2.755,0,0,0-2.625-2.613,10.725,10.725,0,0,0-1.78-.139c-3.958-.012-7.915-.025-11.873,0a7.981,7.981,0,0,1-6.712-3.156,6.733,6.733,0,0,1-1.106-4.195c-.137-3.545-.2-7.094-.214-10.642a8.075,8.075,0,0,1,7.878-8.2c5.023-.1,10.05-.026,15.076-.047.629,0,.824.259.81.845-.024,1-.048,2.013.008,3.015.046.815-.3,1-1.05.992-4.649-.027-9.3,0-13.946-.02a3.568,3.568,0,0,0-2.925,1.009,3.509,3.509,0,0,0-1,1.941q-.025,5.648.225,11.3c.075,1.645,1.15,2.441,2.935,2.467,1.947.028,3.895.007,5.842.008,2.544,0,5.089-.026,7.633.01,4.012.057,7.272,2.552,7.938,6.184a25.428,25.428,0,0,1,.361,4.687,52.926,52.926,0,0,1-.331,8.525c-.619,3.658-3.2,5.644-6.9,5.964-1.155.1-2.317.161-3.476.162q-28.646.015-57.291-.015c-.975,0-1.286.241-1.274,1.236a9.789,9.789,0,0,1-1.763,5.471c-1.558,2.408-3.939,3.172-6.626,3.29-2.227.1-4.457.123-6.682.236-.771.039-.98-.252-.951-.967C791.189,224.725,791.157,223.664,791.157,222.3Zm11.386-9.847c.052-.555.105-.86.106-1.164,0-6.655,0-13.309.014-19.963,0-.721-.216-.985-.971-.972-2.448.043-4.9,0-7.345.022a8.72,8.72,0,0,0-4.387,1.22,10.985,10.985,0,0,0-5.366,11.008c.66,4.558,4.006,8.507,8.437,9.267A83.187,83.187,0,0,0,802.544,212.45Z" transform="translate(-650.776 -157.954)" fill="#fff"/>
      <path id="Path_11585" data-name="Path 11585" d="M600.718,225c-.166-1.376-.326-2.7-.5-4.147h2.95q3.251,0,6.5,0A5.534,5.534,0,0,0,615.531,216a14.243,14.243,0,0,0,.21-2.525q.021-16.113.009-32.227V180c1.284,0,2.5-.017,3.712.021.162,0,.387.263.456.45a2.272,2.272,0,0,1,.029.747c0,11.4.016,22.8-.022,34.206a12.827,12.827,0,0,1-.518,3.607c-1.176,3.908-3.688,5.9-7.776,6.039-3.514.123-7.035.028-10.552.026A1.907,1.907,0,0,1,600.718,225Z" transform="translate(-505.25 -166.518)" fill="#fff"/>
      <path id="Path_11586" data-name="Path 11586" d="M1319.885,169.741h4.484v46.966h-4.484Z" transform="translate(-1089.276 -158.196)" fill="#fff"/>
      <path id="Path_11587" data-name="Path 11587" d="M734.519,216.566c-1.422,0-2.7.023-3.983-.025-.2-.008-.454-.309-.559-.533a1.888,1.888,0,0,1-.031-.744q0-22.191,0-44.382c0-1.4,0-1.4,1.376-1.4.817,0,1.634.024,2.45-.006.579-.022.8.216.75.778-.023.249,0,.5,0,.754v45.557Z" transform="translate(-610.511 -157.982)" fill="#fff"/>
      <path id="Path_11588" data-name="Path 11588" d="M621.749,242.2H617.28c-.031-.354-.083-.681-.083-1.008q-.007-15.44-.021-30.88c0-.866.257-1.177,1.119-1.119.906.061,1.819.027,2.729.013.514-.008.756.205.724.728-.015.25,0,.5,0,.753q0,15.063,0,30.127Z" transform="translate(-519.012 -190.204)" fill="#fff"/>
      <path id="Path_11589" data-name="Path 11589" d="M260.54,197.6a2.734,2.734,0,0,1,2.732-2.746,2.771,2.771,0,1,1-.048,5.542A2.716,2.716,0,0,1,260.54,197.6Z" transform="translate(-229.594 -178.575)" fill="#fff"/>
      <path id="Path_11590" data-name="Path 11590" d="M545.394,443.736a2.853,2.853,0,0,1,2.76,2.752,2.786,2.786,0,0,1-2.784,2.714,2.675,2.675,0,0,1-2.765-2.785A2.738,2.738,0,0,1,545.394,443.736Z" transform="translate(-458.496 -380.549)" fill="#fff"/>
      <path id="Path_11591" data-name="Path 11591" d="M504.1,449.195a2.6,2.6,0,0,1-2.708-2.733,2.643,2.643,0,0,1,2.724-2.735,2.713,2.713,0,0,1,2.73,2.75A2.663,2.663,0,0,1,504.1,449.195Z" transform="translate(-425.054 -380.542)" fill="#fff"/>
      <path id="Path_11592" data-name="Path 11592" d="M1321.508,115.991h-5.465v-1.369l.989-.281c-.116-.226-.2-.418-.309-.6-1.48-2.422.283-4.892,2.709-5.185.526-.064,1.064-.033,1.594-.067.552-.036.795.181.792.756,0,.545-.175.812-.758.793a6.484,6.484,0,0,0-1.213.1c-1.268.2-2.067.944-2.087,1.916a2.519,2.519,0,0,0,2,2.3,5.779,5.779,0,0,0,.839.1C1321.782,114.559,1321.858,114.68,1321.508,115.991Z" transform="translate(-1086.158 -108.489)" fill="#fff"/>
    </g>
  </g>
</svg>
