<svg xmlns="http://www.w3.org/2000/svg" width="148" height="148" viewBox="0 0 148 148">
  <g id="Group_60" data-name="Group 60" transform="translate(-1677 -864)">
    <circle id="Ellipse_2781" data-name="Ellipse 2781" cx="60" cy="60" r="60" transform="translate(1691 878)" fill="#ff440f"/>
    <circle id="Ellipse_2782" data-name="Ellipse 2782" cx="74" cy="74" r="74" transform="translate(1677 864)" fill="#ff440f" opacity="0.04"/>
    <path id="Path_2796" data-name="Path 2796" d="M66,0A66,66,0,1,1,0,66,66,66,0,0,1,66,0Z" transform="translate(1685 872)" fill="#ff440f" opacity="0.04"/>
    <path id="Polygon_1" data-name="Polygon 1" d="M16.624,7.919a5,5,0,0,1,8.752,0L37.9,30.582A5,5,0,0,1,33.524,38H8.476A5,5,0,0,1,4.1,30.582Z" transform="translate(1777 917) rotate(90)" fill="#fff"/>
  </g>
</svg>
